P3
36 36
255
0 196 255 0 196 255 0 196 255 0 196 255 0 196 255 0 196 255 0 196 255 0 196 255 0 196 255 0 196 255 0 196 255 0 196 255 0 196 255 0 196 255 0 196 255 0 196 255 0 196 255 0 196 255 0 196 255 0 196 255 0 196 255 0 196 255 0 196 255 0 196 255 0 196 255 0 196 255 0 196 255 0 196 255 0 196 255 0 196 255 0 196 255 0 196 255 0 196 255 0 196 255 0 196 255 0 196 255
0 196 255 0 196 255 0 196 255 0 196 255 0 196 255 0 196 255 0 196 255 0 196 255 0 196 255 0 196 255 0 196 255 0 196 255 0 196 255 0 196 255 0 196 255 0 196 255 0 196 255 0 196 255 0 196 255 0 196 255 0 196 255 0 196 255 0 195 255 0 196 255 0 196 255 0 195 255 0 196 255 0 196 255 0 195 255 0 196 255 0 196 255 0 195 255 0 196 255 0 196 255 0 195 255 0 196 255
0 196 255 0 196 255 0 196 255 0 196 255 0 196 255 0 196 255 0 196 255 0 196 255 0 196 255 0 196 255 0 196 254 0 196 254 0 196 254 0 196 254 0 196 254 0 196 255 0 196 255 0 196 255 0 196 255 0 196 254 0 196 254 0 196 254 0 196 254 0 196 254 0 196 255 0 196 255 0 196 255 0 196 255 0 196 255 0 196 255 0 196 255 0 196 255 0 196 255 0 196 255 0 196 255 0 196 255
0 196 255 0 196 255 0 196 255 0 196 255 0 196 255 0 196 255 0 196 255 0 196 255 0 196 255 0 196 255 0 196 254 0 196 254 0 196 254 0 196 254 0 196 254 0 196 255 0 196 255 0 196 255 0 196 255 0 196 254 0 196 254 0 196 254 0 196 254 0 196 254 0 196 255 0 196 255 0 196 255 0 196 255 0 196 255 0 196 255 0 196 255 0 196 255 0 196 255 0 196 255 0 196 255 0 196 255
0 196 255 0 196 255 0 196 255 0 196 255 0 196 255 0 196 255 0 196 255 0 196 255 0 196 255 0 196 255 0 196 254 0 196 254 0 196 254 0 196 254 0 196 254 0 196 255 0 196 255 0 196 255 0 196 255 0 196 254 0 196 254 0 196 254 0 196 254 0 196 254 0 196 255 0 196 255 0 196 255 0 196 255 0 196 255 0 196 255 0 196 255 0 196 255 0 196 255 0 196 255 0 196 255 0 196 255
0 196 255 0 196 255 0 196 255 0 196 255 0 196 255 0 196 255 0 196 255 0 196 255 0 196 255 0 196 255 0 196 254 0 196 254 0 196 254 0 196 254 0 196 254 0 196 255 0 196 255 0 196 255 0 196 255 0 196 254 0 196 254 0 196 254 0 196 254 0 196 254 0 196 255 0 196 255 0 196 255 0 196 255 0 196 255 0 196 255 0 196 255 0 196 255 0 196 255 0 196 255 0 196 255 0 196 255
0 196 255 0 196 255 0 196 255 0 196 255 0 196 255 0 196 255 0 196 255 0 196 255 0 196 255 0 196 255 0 196 255 0 196 255 0 196 255 0 196 255 0 196 255 0 196 255 0 196 255 0 196 255 0 196 255 0 196 255 0 196 255 0 196 255 0 196 255 0 196 255 0 196 255 0 196 255 0 196 255 0 196 255 0 196 255 0 196 255 0 196 255 0 196 255 0 196 255 0 196 255 0 196 255 0 196 255
0 196 255 0 196 255 0 196 255 0 196 255 0 196 255 0 196 255 0 196 255 0 196 255 0 196 255 0 196 255 0 196 255 0 196 255 0 196 255 0 196 255 0 196 255 0 196 255 0 196 255 0 196 255 0 196 255 0 196 255 0 196 255 0 196 255 0 196 254 0 196 255 0 196 255 0 196 254 0 196 255 0 196 255 0 196 254 0 196 255 0 196 255 0 196 254 0 196 255 0 196 255 0 196 254 0 196 255
0 196 255 0 196 255 0 196 255 0 196 255 0 196 255 0 196 255 0 196 255 0 196 255 0 196 255 0 196 255 0 196 255 0 196 255 0 196 255 0 196 255 0 196 255 0 196 255 0 196 255 0 196 255 0 196 255 0 196 255 0 196 255 0 196 255 0 196 255 0 196 255 0 196 255 0 196 255 0 196 255 0 196 255 0 196 255 0 196 255 0 196 255 0 196 255 0 196 255 0 196 255 0 196 255 0 196 255
0 196 255 0 196 255 0 196 255 0 196 255 0 196 255 0 196 255 0 196 255 0 196 255 0 196 255 0 196 255 0 196 255 0 196 255 0 196 255 0 196 255 0 196 255 0 196 255 0 196 255 0 196 255 0 196 255 0 196 255 0 196 255 0 196 255 0 196 255 0 196 255 0 196 255 0 196 255 0 196 255 0 196 255 0 196 255 0 196 255 0 196 255 0 196 255 0 196 255 0 196 255 0 196 255 0 196 255
0 196 255 0 196 255 0 196 255 0 196 255 0 196 255 0 196 255 0 196 255 0 196 255 0 196 255 0 195 255 0 196 254 0 196 254 0 196 254 0 196 254 0 196 254 0 196 255 0 196 255 0 196 255 0 196 255 0 195 254 229 248 254 254 254 254 254 254 254 254 254 254 255 255 255 16 199 254 0 196 255 47 206 255 152 230 254 0 196 255 0 196 255 0 196 254 0 196 255 0 196 255 0 196 254 0 196 255
0 196 255 0 196 255 0 196 255 0 196 255 0 196 255 0 196 255 0 196 255 0 196 255 0 196 255 255 255 255 7 196 254 0 196 254 0 196 254 0 196 254 0 196 254 0 196 255 0 196 255 0 196 255 0 196 255 247 253 254 254 254 254 254 254 254 254 254 254 254 254 254 255 255 255 255 255 255 255 255 255 255 255 255 0 196 255 0 196 255 0 196 255 0 196 255 0 196 255 0 196 255 0 196 255 0 196 255
0 196 255 0 196 255 0 196 255 0 196 255 0 196 255 0 196 255 0 196 255 0 196 255 0 196 255 255 255 255 254 254 254 67 210 254 0 196 254 0 196 254 0 196 254 0 196 255 0 196 255 0 196 255 0 196 255 254 254 254 254 254 254 254 254 254 254 254 254 254 254 254 255 255 255 255 255 255 255 255 255 242 252 255 229 248 255 0 196 255 0 196 255 0 196 255 0 196 255 0 196 255 0 196 255 0 196 255
0 196 255 0 196 255 0 196 255 0 196 255 0 196 255 0 196 255 0 196 255 0 196 255 0 196 255 255 255 255 254 254 254 254 254 254 242 251 254 0 195 254 0 196 254 0 196 255 0 196 255 0 196 255 253 254 255 254 254 254 254 254 254 254 254 254 254 254 254 254 254 254 255 255 255 254 254 254 255 255 255 229 248 255 0 196 254 0 196 255 0 196 255 0 196 254 0 196 255 0 196 255 0 196 254 0 196 255
0 196 255 0 196 255 0 196 255 0 196 255 0 196 255 0 196 255 0 196 255 0 196 255 0 196 255 255 255 255 254 254 254 254 254 254 254 254 254 254 254 254 186 238 254 0 195 255 0 196 255 0 196 255 255 255 255 254 254 254 254 254 254 254 254 254 254 254 254 254 254 254 255 255 255 255 255 255 255 255 255 0 196 255 0 196 255 0 196 255 0 196 255 0 196 255 0 196 255 0 196 255 0 196 255 0 196 255
0 196 255 0 196 255 0 196 255 0 196 255 0 196 255 0 196 255 0 196 255 0 196 255 0 196 255 0 196 255 255 255 255 255 255 255 255 255 255 255 255 255 255 255 255 255 255 255 255 255 255 255 255 255 255 255 255 255 255 255 255 255 255 255 255 255 255 255 255 255 255 255 255 255 255 255 255 255 255 255 255 0 196 255 0 196 255 0 196 255 0 196 255 0 196 255 0 196 255 0 196 255 0 196 255 0 196 255
0 196 255 0 196 255 0 196 255 0 196 255 0 196 255 0 196 255 0 196 255 0 196 255 5 195 255 255 255 255 165 233 255 255 255 255 255 255 255 255 255 255 255 255 255 255 255 255 255 255 255 255 255 255 255 255 255 255 255 255 255 255 255 255 255 255 254 254 254 255 255 255 255 255 255 254 254 254 255 255 255 0 196 255 0 196 254 0 196 255 0 196 255 0 196 254 0 196 255 0 196 255 0 196 254 0 196 255
0 196 255 0 196 255 0 196 255 0 196 255 0 196 255 0 196 255 0 196 255 0 196 255 0 196 255 255 255 255 255 255 255 255 255 255 255 255 255 255 255 255 255 255 255 255 255 255 255 255 255 255 255 255 255 255 255 255 255 255 255 255 255 255 255 255 255 255 255 255 255 255 255 255 255 255 255 255 254 255 255 0 196 255 0 196 255 0 196 255 0 196 255 0 196 255 0 196 255 0 196 255 0 196 255 0 196 255
0 196 255 0 196 255 0 196 255 0 196 255 0 196 255 0 196 255 0 196 255 0 196 255 0 196 255 67 209 255 255 255 255 255 255 255 255 255 255 255 255 255 255 255 255 255 255 255 255 255 255 255 255 255 255 255 255 255 255 255 255 255 255 255 255 255 255 255 255 255 255 255 255 255 255 255 255 255 84 214 255 0 196 255 0 196 255 0 196 255 0 196 255 0 196 255 0 196 255 0 196 255 0 196 255 0 196 255
0 196 255 0 196 255 0 196 255 0 196 255 0 196 255 0 196 255 0 196 255 0 196 255 0 196 255 0 196 255 61 208 254 254 254 254 254 254 254 254 254 254 254 254 254 255 255 255 255 255 255 255 255 255 255 255 255 254 254 254 254 254 254 254 254 254 254 254 254 254 254 254 255 255 255 254 254 254 0 195 255 0 196 255 0 196 254 0 196 255 0 196 255 0 196 254 0 196 255 0 196 255 0 196 254 0 196 255
0 196 255 0 196 255 0 196 255 0 196 255 0 196 255 0 196 255 0 196 255 0 196 255 0 196 255 0 196 255 173 234 254 173 234 254 254 254 254 254 254 254 254 254 254 255 255 255 255 255 255 255 255 255 255 255 255 254 254 254 254 254 254 254 254 254 254 254 254 254 254 254 255 255 255 168 234 255 0 196 255 0 196 255 0 196 255 0 196 255 0 196 255 0 196 255 0 196 255 0 196 255 0 196 255 0 196 255
0 196 255 0 196 255 0 196 255 0 196 255 0 196 255 0 196 255 0 196 255 0 196 255 0 196 255 0 196 255 0 195 254 254 254 254 254 254 254 254 254 254 254 254 254 255 255 255 255 255 255 255 255 255 255 255 255 254 254 254 254 254 254 254 254 254 254 254 254 254 254 254 255 255 255 0 196 255 0 196 255 0 196 255 0 196 255 0 196 255 0 196 255 0 196 255 0 196 255 0 196 255 0 196 255 0 196 255
0 196 255 0 196 255 0 196 255 0 196 255 0 196 255 0 196 255 0 196 255 0 196 255 0 196 255 0 196 255 0 196 254 10 197 254 254 254 254 254 254 254 254 254 254 255 255 255 255 255 255 255 255 255 255 255 255 254 254 254 254 254 254 254 254 254 254 254 254 254 254 254 0 195 255 0 196 254 0 196 255 0 196 255 0 196 254 0 196 255 0 196 255 0 196 254 0 196 255 0 196 255 0 196 254 0 196 255
0 196 255 0 196 255 0 196 255 0 196 255 0 196 255 0 196 255 0 196 255 0 196 255 0 196 255 0 196 255 0 196 254 0 196 254 0 196 254 24 200 254 253 254 254 255 255 255 255 255 255 255 255 255 255 255 255 254 254 254 254 254 254 254 254 254 254 254 254 63 209 254 0 196 255 0 196 255 0 196 255 0 196 255 0 196 255 0 196 255 0 196 255 0 196 255 0 196 255 0 196 255 0 196 255 0 196 255
0 196 255 0 196 255 0 196 255 0 196 255 0 196 255 0 196 255 0 196 255 0 196 255 0 196 255 0 196 255 0 196 255 0 196 255 170 234 255 255 255 255 255 255 255 255 255 255 255 255 255 255 255 255 255 255 255 255 255 255 255 255 255 255 255 255 39 202 255 0 196 255 0 196 255 0 196 255 0 196 255 0 196 255 0 196 255 0 196 255 0 196 255 0 196 255 0 196 255 0 196 255 0 196 255 0 196 255
0 196 255 0 196 255 0 196 255 0 196 255 0 196 255 0 196 255 0 196 255 0 196 255 166 233 255 255 255 255 255 255 255 255 255 255 255 255 255 255 255 255 255 255 255 255 255 255 255 255 255 255 255 255 255 255 255 255 255 255 238 250 255 0 196 255 0 196 254 0 196 255 0 196 255 0 196 254 0 196 255 0 196 255 0 196 254 0 196 255 0 196 255 0 196 254 0 196 255 0 196 255 0 196 254 0 196 255
0 196 255 0 196 255 0 196 255 0 196 255 0 196 255 0 196 255 0 196 255 0 196 255 0 196 255 0 196 255 77 213 255 249 253 255 255 255 255 255 255 255 255 255 255 255 255 255 255 255 255 255 255 255 196 240 255 29 201 255 0 196 255 0 196 255 0 196 255 0 196 255 0 196 255 0 196 255 0 196 255 0 196 255 0 196 255 0 196 255 0 196 255 0 196 255 0 196 255 0 196 255 0 196 255 0 196 255
0 196 255 0 196 255 0 196 255 0 196 255 0 196 255 0 196 255 0 196 255 0 196 255 0 196 255 0 196 255 0 196 255 0 196 255 0 196 255 0 196 255 0 196 255 0 196 255 0 196 255 0 196 255 0 196 255 0 196 255 0 196 255 0 196 255 0 196 255 0 196 255 0 196 255 0 196 255 0 196 255 0 196 255 0 196 255 0 196 255 0 196 255 0 196 255 0 196 255 0 196 255 0 196 255 0 196 255
0 196 255 0 196 255 0 196 255 0 196 255 0 196 255 0 196 255 0 196 255 0 196 255 0 196 255 0 196 255 0 196 255 0 196 255 0 196 255 0 196 255 0 196 255 0 196 255 0 196 255 0 196 255 0 196 255 0 196 255 0 196 255 0 196 255 0 196 254 0 196 255 0 196 255 0 196 254 0 196 255 0 196 255 0 196 254 0 196 255 0 196 255 0 196 254 0 196 255 0 196 255 0 196 254 0 196 255
0 196 255 0 196 255 0 196 255 0 196 255 0 196 255 0 196 255 0 196 255 0 196 255 0 196 255 0 196 255 0 196 255 0 196 255 0 196 255 0 196 255 0 196 255 0 196 255 0 196 255 0 196 255 0 196 255 0 196 255 0 196 255 0 196 255 0 196 255 0 196 255 0 196 255 0 196 255 0 196 255 0 196 255 0 196 255 0 196 255 0 196 255 0 196 255 0 196 255 0 196 255 0 196 255 0 196 255
0 196 255 0 196 255 0 196 255 0 196 255 0 196 255 0 196 255 0 196 255 0 196 255 0 196 255 0 196 255 0 196 255 0 196 255 0 196 255 0 196 255 0 196 255 0 196 255 0 196 255 0 196 255 0 196 255 0 196 255 0 196 255 0 196 255 0 196 255 0 196 255 0 196 255 0 196 255 0 196 255 0 196 255 0 196 255 0 196 255 0 196 255 0 196 255 0 196 255 0 196 255 0 196 255 0 196 255
0 196 255 0 196 255 0 196 255 0 196 255 0 196 255 0 196 255 0 196 255 0 196 255 0 196 255 0 196 255 0 196 255 0 196 255 0 196 255 0 196 255 0 196 255 0 196 255 0 196 255 0 196 255 0 196 255 0 196 255 0 196 255 0 196 255 0 196 254 0 196 255 0 196 255 0 196 254 0 196 255 0 196 255 0 196 254 0 196 255 0 196 255 0 196 254 0 196 255 0 196 255 0 196 254 0 196 255
0 196 255 0 196 255 0 196 255 0 196 255 0 196 255 0 196 255 0 196 255 0 196 255 0 196 255 0 196 255 0 196 255 0 196 255 0 196 255 0 196 255 0 196 255 0 196 255 0 196 255 0 196 255 0 196 255 0 196 255 0 196 255 0 196 255 0 196 255 0 196 255 0 196 255 0 196 255 0 196 255 0 196 255 0 196 255 0 196 255 0 196 255 0 196 255 0 196 255 0 196 255 0 196 255 0 196 255
0 196 255 0 196 255 0 196 255 0 196 255 0 196 255 0 196 255 0 196 255 0 196 255 0 196 255 0 196 255 0 196 255 0 196 255 0 196 255 0 196 255 0 196 255 0 196 255 0 196 255 0 196 255 0 196 255 0 196 255 0 196 255 0 196 255 0 196 255 0 196 255 0 196 255 0 196 255 0 196 255 0 196 255 0 196 255 0 196 255 0 196 255 0 196 255 0 196 255 0 196 255 0 196 255 0 196 255
0 196 255 0 196 255 0 196 255 0 196 255 0 196 255 0 196 255 0 196 255 0 196 255 0 196 255 0 196 255 0 196 255 0 196 255 0 196 255 0 196 255 0 196 255 0 196 255 0 196 255 0 196 255 0 196 255 0 196 255 0 196 255 0 196 255 0 196 254 0 196 255 0 196 255 0 196 254 0 196 255 0 196 255 0 196 254 0 196 255 0 196 255 0 196 254 0 196 255 0 196 255 0 196 254 0 196 255
0 196 255 0 196 255 0 196 255 0 196 255 0 196 255 0 196 255 0 196 255 0 196 255 0 196 255 0 196 255 0 196 255 0 196 255 0 196 255 0 196 255 0 196 255 0 196 255 0 196 255 0 196 255 0 196 255 0 196 255 0 196 255 0 196 255 0 196 255 0 196 255 0 196 255 0 196 255 0 196 255 0 196 255 0 196 255 0 196 255 0 196 255 0 196 255 0 196 255 0 196 255 0 196 255 0 196 255
