P3
36 36
255
0 255 255 0 255 255 0 255 255 0 255 255 0 255 255 0 255 255 0 255 255 0 255 255 0 255 255 0 255 255 0 255 255 0 255 255 0 255 255 0 255 255 0 255 255 0 255 255 0 255 255 0 255 255 0 255 255 0 255 255 0 255 255 0 255 255 0 255 255 0 255 255 0 255 255 0 255 255 0 255 255 0 255 255 0 255 255 0 255 255 0 255 255 0 255 255 0 255 255 0 255 255 0 255 255 0 255 255
0 255 255 0 197 251 0 197 251 0 194 254 0 197 251 0 197 251 0 194 254 0 197 251 0 197 251 0 194 254 0 197 251 0 197 251 0 194 254 0 197 251 0 197 251 0 194 254 0 197 251 0 197 251 0 194 254 0 197 251 0 197 251 0 194 254 0 197 251 0 197 251 0 194 254 0 197 251 0 197 251 0 194 254 0 197 251 0 197 251 0 194 254 0 197 251 0 197 251 0 194 254 0 197 251 0 197 251
0 255 255 0 197 251 0 197 251 0 194 254 0 197 251 0 197 251 0 194 254 0 197 251 0 197 251 0 194 254 0 197 251 0 197 250 0 194 253 0 197 250 0 197 251 0 194 254 0 197 251 0 197 251 0 194 254 0 197 251 0 197 250 0 194 253 0 197 250 0 197 251 0 194 254 0 197 251 0 197 251 0 194 254 0 197 251 0 197 251 0 194 254 0 197 251 0 197 251 0 194 254 0 197 251 0 197 251
0 255 255 0 194 254 0 194 254 0 196 255 0 194 254 0 194 254 0 196 255 0 194 254 0 194 254 0 196 255 0 194 254 0 194 253 0 196 254 0 194 253 0 194 254 0 196 255 0 194 254 0 194 254 0 196 255 0 194 254 0 194 253 0 196 254 0 194 253 0 194 254 0 196 255 0 194 254 0 194 254 0 196 255 0 194 254 0 194 254 0 196 255 0 194 254 0 194 254 0 196 255 0 194 254 0 194 254
0 255 255 0 197 251 0 197 251 0 194 254 0 197 251 0 197 251 0 194 254 0 197 251 0 197 251 0 194 254 0 197 251 0 197 250 0 194 253 0 197 250 0 197 251 0 194 254 0 197 251 0 197 251 0 194 254 0 197 251 0 197 250 0 194 253 0 197 250 0 197 251 0 194 254 0 197 251 0 197 251 0 194 254 0 197 251 0 197 251 0 194 254 0 197 251 0 197 251 0 194 254 0 197 251 0 197 251
0 255 255 0 197 251 0 197 251 0 194 254 0 197 251 0 197 251 0 194 254 0 197 251 0 197 251 0 194 254 0 197 251 0 197 251 0 194 254 0 197 251 0 197 251 0 194 254 0 197 251 0 197 251 0 194 254 0 197 251 0 197 251 0 194 254 0 197 251 0 197 251 0 194 254 0 197 251 0 197 251 0 194 254 0 197 251 0 197 251 0 194 254 0 197 251 0 197 251 0 194 254 0 197 251 0 197 251
0 255 255 0 194 254 0 194 254 0 196 255 0 194 254 0 194 254 0 196 255 0 194 254 0 194 254 0 196 255 0 194 254 0 194 254 0 196 255 0 194 254 0 194 254 0 196 255 0 194 254 0 194 254 0 196 255 0 194 254 0 194 254 0 196 255 0 194 254 0 194 254 0 196 255 0 194 254 0 194 254 0 196 255 0 194 254 0 194 254 0 196 255 0 194 254 0 194 254 0 196 255 0 194 254 0 194 254
0 255 255 0 197 251 0 197 251 0 194 254 0 197 251 0 197 251 0 194 254 0 197 251 0 197 251 0 194 254 0 197 251 0 197 251 0 194 254 0 197 251 0 197 251 0 194 254 0 197 251 0 197 251 0 194 254 0 197 251 0 197 251 0 194 254 0 197 251 0 197 251 0 194 254 0 197 251 0 197 251 0 194 254 0 197 251 0 197 251 0 194 254 0 197 251 0 197 251 0 194 254 0 197 251 0 197 251
0 255 255 0 197 251 0 197 251 0 194 254 0 197 251 0 197 251 0 194 254 0 197 251 0 197 251 0 194 254 0 197 251 0 197 251 0 194 254 0 197 251 0 197 251 0 194 254 0 197 251 0 197 251 0 194 254 0 197 251 0 197 251 0 194 254 0 197 251 0 197 251 0 194 254 0 197 251 0 197 251 0 194 254 0 197 251 0 197 251 0 194 254 0 197 251 0 197 251 0 194 254 0 197 251 0 197 251
0 255 255 0 194 254 0 194 254 0 196 255 0 194 254 0 194 254 0 196 255 0 194 254 0 194 254 0 196 255 0 194 254 0 194 254 0 196 255 0 194 254 0 194 254 0 196 255 0 194 254 0 194 254 0 196 255 0 194 254 0 194 254 0 196 255 0 194 254 0 194 254 0 196 255 0 194 254 0 194 254 0 196 255 0 194 254 0 194 254 0 196 255 0 194 254 0 194 254 0 196 255 0 194 254 0 194 254
0 255 255 0 197 251 0 197 251 0 194 254 0 197 251 0 197 251 0 194 254 0 197 251 0 197 251 0 190 254 0 197 251 0 197 251 0 194 254 0 197 251 0 197 251 0 194 254 0 197 251 0 197 251 0 194 254 0 193 251 255 255 251 254 254 254 251 251 251 250 251 251 255 255 254 0 193 251 0 195 251 38 203 254 208 242 251 0 197 251 0 194 254 0 197 251 0 197 251 0 194 254 0 197 251 0 197 251
0 255 255 0 197 251 0 197 251 0 194 254 0 197 251 0 197 251 0 194 254 0 197 251 0 195 251 254 254 254 0 183 251 0 197 250 0 194 253 0 197 250 0 197 251 0 194 254 0 197 251 0 197 251 0 194 254 255 255 251 250 250 250 253 253 253 250 250 250 251 251 251 254 254 254 255 252 251 255 255 251 255 255 254 0 196 251 0 197 251 0 194 254 0 197 251 0 197 251 0 194 254 0 197 251 0 197 251
0 255 255 0 194 254 0 194 254 0 196 255 0 194 254 0 194 254 0 196 255 0 194 254 0 186 254 255 255 255 254 254 254 64 208 253 0 196 254 0 194 253 0 194 254 0 196 255 0 194 254 0 194 254 0 196 255 254 254 254 253 253 253 254 254 254 253 253 253 254 254 254 255 255 255 254 254 254 254 254 254 242 252 255 242 251 254 0 194 254 0 196 255 0 194 254 0 194 254 0 196 255 0 194 254 0 194 254
0 255 255 0 197 251 0 197 251 0 194 254 0 197 251 0 197 251 0 194 254 0 197 251 0 188 251 254 254 254 251 251 251 250 250 250 255 255 253 0 188 250 0 197 251 0 194 254 0 197 251 0 197 251 255 255 254 251 251 251 250 250 250 253 253 253 250 250 250 251 251 251 254 254 254 251 251 251 251 251 251 243 251 254 4 198 251 0 197 251 0 194 254 0 197 251 0 197 251 0 194 254 0 197 251 0 197 251
0 255 255 0 197 251 0 197 251 0 194 254 0 197 251 0 197 251 0 194 254 0 197 251 0 197 251 254 254 254 251 251 251 251 251 251 254 254 254 254 252 251 190 238 251 0 185 254 0 197 251 0 197 251 254 254 254 251 251 251 251 251 251 254 254 254 251 251 251 251 251 251 254 254 254 251 251 251 255 253 251 0 194 254 0 197 251 0 197 251 0 194 254 0 197 251 0 197 251 0 194 254 0 197 251 0 197 251
0 255 255 0 194 254 0 194 254 0 196 255 0 194 254 0 194 254 0 196 255 0 194 254 0 194 254 0 196 255 254 254 254 254 254 254 255 255 255 254 254 254 254 254 254 255 255 255 254 254 254 254 254 254 255 255 255 254 254 254 254 254 254 255 255 255 254 254 254 254 254 254 255 255 255 254 254 254 255 255 254 0 196 255 0 194 254 0 194 254 0 196 255 0 194 254 0 194 254 0 196 255 0 194 254 0 194 254
0 255 255 0 197 251 0 197 251 0 194 254 0 197 251 0 197 251 0 194 254 0 197 251 0 184 251 255 255 254 129 221 251 251 251 251 254 254 254 251 251 251 251 251 251 254 254 254 251 251 251 251 251 251 254 254 254 251 251 251 251 251 251 254 254 254 251 251 251 251 251 251 254 254 254 251 251 251 255 255 251 0 194 254 0 197 251 0 197 251 0 194 254 0 197 251 0 197 251 0 194 254 0 197 251 0 197 251
0 255 255 0 197 251 0 197 251 0 194 254 0 197 251 0 197 251 0 194 254 0 197 251 0 193 251 254 254 254 251 251 251 251 251 251 254 254 254 251 251 251 251 251 251 254 254 254 251 251 251 251 251 251 254 254 254 251 251 251 251 251 251 254 254 254 251 251 251 251 251 251 254 254 254 251 251 251 255 255 251 0 194 254 0 197 251 0 197 251 0 194 254 0 197 251 0 197 251 0 194 254 0 197 251 0 197 251
0 255 255 0 194 254 0 194 254 0 196 255 0 194 254 0 194 254 0 196 255 0 194 254 0 194 254 67 209 255 254 254 254 254 254 254 255 255 255 254 254 254 254 254 254 255 255 255 254 254 254 254 254 254 255 255 255 254 254 254 254 254 254 255 255 255 254 254 254 254 254 254 255 255 255 254 254 254 85 213 254 0 196 255 0 194 254 0 194 254 0 196 255 0 194 254 0 194 254 0 196 255 0 194 254 0 194 254
0 255 255 0 197 251 0 197 251 0 194 254 0 197 251 0 197 251 0 194 254 0 197 251 0 197 251 0 194 254 28 198 251 255 254 251 254 254 254 251 251 251 251 251 251 254 254 254 251 251 251 251 251 251 254 254 254 251 251 251 251 251 251 254 254 254 251 251 251 251 251 251 254 254 254 254 252 251 0 189 251 0 194 254 0 197 251 0 197 251 0 194 254 0 197 251 0 197 251 0 194 254 0 197 251 0 197 251
0 255 255 0 197 251 0 197 251 0 194 254 0 197 251 0 197 251 0 194 254 0 197 251 0 197 251 0 194 254 225 245 251 154 228 250 253 253 253 250 250 250 251 251 251 254 254 254 251 251 251 251 251 251 254 254 254 251 251 251 250 250 250 253 253 253 250 250 250 251 251 251 254 254 254 187 236 251 0 197 251 0 194 254 0 197 251 0 197 251 0 194 254 0 197 251 0 197 251 0 194 254 0 197 251 0 197 251
0 255 255 0 194 254 0 194 254 0 196 255 0 194 254 0 194 254 0 196 255 0 194 254 0 194 254 0 196 255 0 190 254 254 253 253 254 254 254 253 253 253 254 254 254 255 255 255 254 254 254 254 254 254 255 255 255 254 254 254 253 253 253 254 254 254 253 253 253 254 254 254 255 255 255 0 195 254 0 194 254 0 196 255 0 194 254 0 194 254 0 196 255 0 194 254 0 194 254 0 196 255 0 194 254 0 194 254
0 255 255 0 197 251 0 197 251 0 194 254 0 197 251 0 197 251 0 194 254 0 197 251 0 197 251 0 194 254 0 197 251 0 186 250 255 255 253 250 250 250 251 251 251 254 254 254 251 251 251 251 251 251 254 254 254 251 251 251 250 250 250 253 253 253 250 250 250 249 251 251 0 189 254 0 197 251 0 197 251 0 194 254 0 197 251 0 197 251 0 194 254 0 197 251 0 197 251 0 194 254 0 197 251 0 197 251
0 255 255 0 197 251 0 197 251 0 194 254 0 197 251 0 197 251 0 194 254 0 197 251 0 197 251 0 194 254 0 197 251 0 197 251 0 194 254 0 190 251 255 252 251 254 254 254 251 251 251 251 251 251 254 254 254 251 251 251 251 251 251 254 254 254 250 251 251 52 205 251 0 194 254 0 197 251 0 197 251 0 194 254 0 197 251 0 197 251 0 194 254 0 197 251 0 197 251 0 194 254 0 197 251 0 197 251
0 255 255 0 194 254 0 194 254 0 196 255 0 194 254 0 194 254 0 196 255 0 194 254 0 194 254 0 196 255 0 194 254 0 194 254 170 234 255 254 254 254 254 254 254 255 255 255 254 254 254 254 254 254 255 255 255 254 254 254 254 254 254 255 255 255 11 194 254 0 194 254 0 196 255 0 194 254 0 194 254 0 196 255 0 194 254 0 194 254 0 196 255 0 194 254 0 194 254 0 196 255 0 194 254 0 194 254
0 255 255 0 197 251 0 197 251 0 194 254 0 197 251 0 197 251 0 194 254 0 197 251 201 241 251 255 255 254 255 253 251 251 251 251 254 254 254 251 251 251 251 251 251 254 254 254 251 251 251 251 251 251 254 254 254 251 251 251 255 255 251 0 188 254 0 197 251 0 197 251 0 194 254 0 197 251 0 197 251 0 194 254 0 197 251 0 197 251 0 194 254 0 197 251 0 197 251 0 194 254 0 197 251 0 197 251
0 255 255 0 197 251 0 197 251 0 194 254 0 197 251 0 197 251 0 194 254 0 197 251 0 197 251 0 191 254 80 212 251 255 255 251 255 255 254 251 251 251 251 251 251 254 254 254 255 252 251 255 255 251 221 244 254 8 196 251 0 197 251 0 194 254 0 197 251 0 197 251 0 194 254 0 197 251 0 197 251 0 194 254 0 197 251 0 197 251 0 194 254 0 197 251 0 197 251 0 194 254 0 197 251 0 197 251
0 255 255 0 194 254 0 194 254 0 196 255 0 194 254 0 194 254 0 196 255 0 194 254 0 194 254 0 196 255 0 194 254 0 194 254 0 196 255 0 194 254 0 194 254 0 196 255 0 194 254 0 194 254 0 196 255 0 194 254 0 194 254 0 196 255 0 194 254 0 194 254 0 196 255 0 194 254 0 194 254 0 196 255 0 194 254 0 194 254 0 196 255 0 194 254 0 194 254 0 196 255 0 194 254 0 194 254
0 255 255 0 197 251 0 197 251 0 194 254 0 197 251 0 197 251 0 194 254 0 197 251 0 197 251 0 194 254 0 197 251 0 197 251 0 194 254 0 197 251 0 197 251 0 194 254 0 197 251 0 197 251 0 194 254 0 197 251 0 197 251 0 194 254 0 197 251 0 197 251 0 194 254 0 197 251 0 197 251 0 194 254 0 197 251 0 197 251 0 194 254 0 197 251 0 197 251 0 194 254 0 197 251 0 197 251
0 255 255 0 197 251 0 197 251 0 194 254 0 197 251 0 197 251 0 194 254 0 197 251 0 197 251 0 194 254 0 197 251 0 197 251 0 194 254 0 197 251 0 197 251 0 194 254 0 197 251 0 197 251 0 194 254 0 197 251 0 197 251 0 194 254 0 197 251 0 197 251 0 194 254 0 197 251 0 197 251 0 194 254 0 197 251 0 197 251 0 194 254 0 197 251 0 197 251 0 194 254 0 197 251 0 197 251
0 255 255 0 194 254 0 194 254 0 196 255 0 194 254 0 194 254 0 196 255 0 194 254 0 194 254 0 196 255 0 194 254 0 194 254 0 196 255 0 194 254 0 194 254 0 196 255 0 194 254 0 194 254 0 196 255 0 194 254 0 194 254 0 196 255 0 194 254 0 194 254 0 196 255 0 194 254 0 194 254 0 196 255 0 194 254 0 194 254 0 196 255 0 194 254 0 194 254 0 196 255 0 194 254 0 194 254
0 255 255 0 197 251 0 197 251 0 194 254 0 197 251 0 197 251 0 194 254 0 197 251 0 197 251 0 194 254 0 197 251 0 197 251 0 194 254 0 197 251 0 197 251 0 194 254 0 197 251 0 197 251 0 194 254 0 197 251 0 197 251 0 194 254 0 197 251 0 197 251 0 194 254 0 197 251 0 197 251 0 194 254 0 197 251 0 197 251 0 194 254 0 197 251 0 197 251 0 194 254 0 197 251 0 197 251
0 255 255 0 197 251 0 197 251 0 194 254 0 197 251 0 197 251 0 194 254 0 197 251 0 197 251 0 194 254 0 197 251 0 197 251 0 194 254 0 197 251 0 197 251 0 194 254 0 197 251 0 197 251 0 194 254 0 197 251 0 197 251 0 194 254 0 197 251 0 197 251 0 194 254 0 197 251 0 197 251 0 194 254 0 197 251 0 197 251 0 194 254 0 197 251 0 197 251 0 194 254 0 197 251 0 197 251
0 255 255 0 194 254 0 194 254 0 196 255 0 194 254 0 194 254 0 196 255 0 194 254 0 194 254 0 196 255 0 194 254 0 194 254 0 196 255 0 194 254 0 194 254 0 196 255 0 194 254 0 194 254 0 196 255 0 194 254 0 194 254 0 196 255 0 194 254 0 194 254 0 196 255 0 194 254 0 194 254 0 196 255 0 194 254 0 194 254 0 196 255 0 194 254 0 194 254 0 196 255 0 194 254 0 194 254
0 255 255 0 197 251 0 197 251 0 194 254 0 197 251 0 197 251 0 194 254 0 197 251 0 197 251 0 194 254 0 197 251 0 197 251 0 194 254 0 197 251 0 197 251 0 194 254 0 197 251 0 197 251 0 194 254 0 197 251 0 197 251 0 194 254 0 197 251 0 197 251 0 194 254 0 197 251 0 197 251 0 194 254 0 197 251 0 197 251 0 194 254 0 197 251 0 197 251 0 194 254 0 197 251 0 197 251
0 255 255 0 197 251 0 197 251 0 194 254 0 197 251 0 197 251 0 194 254 0 197 251 0 197 251 0 194 254 0 197 251 0 197 251 0 194 254 0 197 251 0 197 251 0 194 254 0 197 251 0 197 251 0 194 254 0 197 251 0 197 251 0 194 254 0 197 251 0 197 251 0 194 254 0 197 251 0 197 251 0 194 254 0 197 251 0 197 251 0 194 254 0 197 251 0 197 251 0 194 254 0 197 251 0 197 251
