P3
36 36
255
0 196 255 0 196 255 0 196 255 0 196 255 0 196 255 0 196 255 0 196 255 0 196 255 0 196 255 0 196 255 0 196 255 0 196 255 0 196 255 0 196 255 0 196 255 0 196 255 0 196 255 0 196 255 0 196 255 0 196 255 0 196 255 0 196 255 0 196 255 0 196 255 0 196 255 0 196 255 0 196 255 0 196 255 0 196 255 0 196 255 0 196 255 0 196 255 0 196 255 0 196 255 0 196 255 0 196 255
0 196 255 0 196 255 0 196 255 0 196 255 0 196 255 0 196 255 0 196 255 0 196 255 0 196 255 0 196 255 0 196 255 0 196 255 0 196 255 0 196 255 0 196 255 0 196 255 0 196 255 0 196 255 0 196 255 0 196 255 0 196 255 0 196 255 0 196 255 0 196 255 0 196 255 0 196 255 0 196 255 0 196 255 0 196 255 0 196 255 0 196 255 0 196 255 0 196 255 0 196 255 0 196 255 0 196 255
0 196 255 0 196 255 0 196 255 0 196 255 0 196 255 0 196 255 0 196 255 0 196 255 0 196 255 0 196 255 0 196 255 0 196 255 0 196 255 0 196 255 0 196 255 0 196 255 0 196 255 0 196 255 0 196 255 0 196 255 0 196 255 0 196 255 0 196 255 0 196 255 0 196 255 0 196 255 0 196 255 0 196 255 0 196 255 0 196 255 0 196 255 0 196 255 0 196 255 0 196 255 0 196 255 0 196 255
0 196 255 0 196 255 0 196 255 0 196 255 0 196 255 0 196 255 0 196 255 0 196 255 0 196 255 0 196 255 0 196 255 0 196 255 0 196 254 0 196 254 0 196 254 0 196 255 0 196 255 0 196 255 0 196 255 0 196 255 0 196 255 0 196 254 0 196 254 0 196 254 0 196 255 0 196 255 0 196 255 0 196 255 0 196 255 0 196 255 0 196 255 0 196 255 0 196 255 0 196 255 0 196 255 0 196 255
0 196 255 0 196 255 0 196 255 0 196 255 0 196 255 0 196 255 0 196 255 0 196 255 0 196 255 0 196 255 0 196 255 0 196 255 0 196 254 0 196 254 0 196 254 0 196 255 0 196 255 0 196 255 0 196 255 0 196 255 0 196 255 0 196 254 0 196 254 0 196 254 0 196 255 0 196 255 0 196 255 0 196 255 0 196 255 0 196 255 0 196 255 0 196 255 0 196 255 0 196 255 0 196 255 0 196 255
0 196 255 0 196 255 0 196 255 0 196 255 0 196 255 0 196 255 0 196 255 0 196 255 0 196 255 0 196 255 0 196 255 0 196 255 0 196 254 0 196 254 0 196 254 0 196 255 0 196 255 0 196 255 0 196 255 0 196 255 0 196 255 0 196 254 0 196 254 0 196 254 0 196 255 0 196 255 0 196 255 0 196 255 0 196 255 0 196 255 0 196 255 0 196 255 0 196 255 0 196 255 0 196 255 0 196 255
0 196 255 0 196 255 0 196 255 0 196 255 0 196 255 0 196 255 0 196 255 0 196 255 0 196 255 0 196 255 0 196 255 0 196 255 0 196 255 0 196 255 0 196 255 0 196 255 0 196 255 0 196 255 0 196 255 0 196 255 0 196 255 0 196 255 0 196 255 0 196 255 0 196 255 0 196 255 0 196 255 0 196 255 0 196 255 0 196 255 0 196 255 0 196 255 0 196 255 0 196 255 0 196 255 0 196 255
0 196 255 0 196 255 0 196 255 0 196 255 0 196 255 0 196 255 0 196 255 0 196 255 0 196 255 0 196 255 0 196 255 0 196 255 0 196 255 0 196 255 0 196 255 0 196 255 0 196 255 0 196 255 0 196 255 0 196 255 0 196 255 0 196 255 0 196 255 0 196 255 0 196 255 0 196 255 0 196 255 0 196 255 0 196 255 0 196 255 0 196 255 0 196 255 0 196 255 0 196 255 0 196 255 0 196 255
0 196 255 0 196 255 0 196 255 0 196 255 0 196 255 0 196 255 0 196 255 0 196 255 0 196 255 0 196 255 0 196 255 0 196 255 0 196 255 0 196 255 0 196 255 0 196 255 0 196 255 0 196 255 0 196 255 0 196 255 0 196 255 0 196 255 0 196 255 0 196 255 0 196 255 0 196 255 0 196 255 0 196 255 0 196 255 0 196 255 0 196 255 0 196 255 0 196 255 0 196 255 0 196 255 0 196 255
0 196 255 0 196 255 0 196 255 0 196 255 0 196 255 0 196 255 0 196 255 0 196 255 0 196 255 0 196 255 0 196 255 0 196 255 0 196 255 0 196 255 0 196 255 0 196 255 0 196 255 0 196 255 0 196 255 0 196 255 0 196 255 0 196 255 0 196 255 0 196 255 0 196 255 0 196 255 0 196 255 0 196 255 0 196 255 0 196 255 0 196 255 0 196 255 0 196 255 0 196 255 0 196 255 0 196 255
0 196 255 0 196 255 0 196 255 0 196 255 0 196 255 0 196 255 0 196 255 0 196 255 0 196 255 0 196 255 0 196 255 0 196 255 0 196 255 0 196 255 0 196 255 0 196 255 0 196 255 0 196 255 0 196 255 0 196 255 142 227 255 255 255 255 255 255 255 255 255 255 255 255 255 0 196 255 0 196 255 0 196 255 255 255 255 0 196 255 0 196 255 0 196 255 0 196 255 0 196 255 0 196 255 0 196 255
0 196 255 0 196 255 0 196 255 0 196 255 0 196 255 0 196 255 0 196 255 0 196 255 0 196 255 255 255 255 0 196 255 0 196 255 0 196 255 0 196 255 0 196 255 0 196 255 0 196 255 0 196 255 0 196 255 221 247 255 255 255 255 255 255 255 255 255 255 255 255 255 255 255 255 255 255 255 255 255 255 255 255 255 0 196 255 0 196 255 0 196 255 0 196 255 0 196 255 0 196 255 0 196 255 0 196 255
0 196 255 0 196 255 0 196 255 0 196 255 0 196 255 0 196 255 0 196 255 0 196 255 0 196 255 255 255 255 255 255 255 203 242 255 0 196 254 0 196 254 0 196 254 0 196 255 0 196 255 0 196 255 0 196 255 255 255 255 255 255 255 254 254 254 254 254 254 254 254 254 255 255 255 255 255 255 255 255 255 242 252 255 255 255 255 0 196 255 0 196 255 0 196 255 0 196 255 0 196 255 0 196 255 0 196 255
0 196 255 0 196 255 0 196 255 0 196 255 0 196 255 0 196 255 0 196 255 0 196 255 0 196 255 255 255 255 255 255 255 255 255 255 236 250 254 0 196 254 0 196 254 0 196 255 0 196 255 0 196 255 252 254 255 255 255 255 255 255 255 254 254 254 254 254 254 254 254 254 255 255 255 255 255 255 255 255 255 255 255 255 0 196 255 0 196 255 0 196 255 0 196 255 0 196 255 0 196 255 0 196 255 0 196 255
0 196 255 0 196 255 0 196 255 0 196 255 0 196 255 0 196 255 0 196 255 0 196 255 0 196 255 255 255 255 255 255 255 255 255 255 254 254 254 254 254 254 133 224 254 0 196 255 0 196 255 0 196 255 255 255 255 255 255 255 255 255 255 254 254 254 254 254 254 254 254 254 255 255 255 255 255 255 255 255 255 0 196 255 0 196 255 0 196 255 0 196 255 0 196 255 0 196 255 0 196 255 0 196 255 0 196 255
0 196 255 0 196 255 0 196 255 0 196 255 0 196 255 0 196 255 0 196 255 0 196 255 0 196 255 0 196 255 255 255 255 255 255 255 255 255 255 255 255 255 255 255 255 255 255 255 255 255 255 255 255 255 255 255 255 255 255 255 255 255 255 255 255 255 255 255 255 255 255 255 255 255 255 255 255 255 255 255 255 0 196 255 0 196 255 0 196 255 0 196 255 0 196 255 0 196 255 0 196 255 0 196 255 0 196 255
0 196 255 0 196 255 0 196 255 0 196 255 0 196 255 0 196 255 0 196 255 0 196 255 0 196 255 255 255 255 53 206 255 255 255 255 255 255 255 255 255 255 255 255 255 255 255 255 255 255 255 255 255 255 255 255 255 255 255 255 255 255 255 255 255 255 255 255 255 255 255 255 255 255 255 255 255 255 255 255 255 0 196 255 0 196 255 0 196 255 0 196 255 0 196 255 0 196 255 0 196 255 0 196 255 0 196 255
0 196 255 0 196 255 0 196 255 0 196 255 0 196 255 0 196 255 0 196 255 0 196 255 0 196 255 255 255 255 255 255 255 255 255 255 255 255 255 255 255 255 255 255 255 255 255 255 255 255 255 255 255 255 255 255 255 255 255 255 255 255 255 255 255 255 255 255 255 255 255 255 255 255 255 255 255 255 255 255 255 0 196 255 0 196 255 0 196 255 0 196 255 0 196 255 0 196 255 0 196 255 0 196 255 0 196 255
0 196 255 0 196 255 0 196 255 0 196 255 0 196 255 0 196 255 0 196 255 0 196 255 0 196 255 67 209 255 255 255 255 255 255 255 255 255 255 255 255 255 255 255 255 255 255 255 255 255 255 255 255 255 255 255 255 255 255 255 255 255 255 255 255 255 255 255 255 255 255 255 255 255 255 255 255 255 255 255 255 0 196 255 0 196 255 0 196 255 0 196 255 0 196 255 0 196 255 0 196 255 0 196 255 0 196 255
0 196 255 0 196 255 0 196 255 0 196 255 0 196 255 0 196 255 0 196 255 0 196 255 0 196 255 0 196 255 10 195 255 255 255 255 255 255 255 255 255 255 255 255 255 255 255 255 255 255 255 255 255 255 255 255 255 255 255 255 255 255 255 255 255 255 255 255 255 255 255 255 255 255 255 255 255 255 1 195 255 0 196 255 0 196 255 0 196 255 0 196 255 0 196 255 0 196 255 0 196 255 0 196 255 0 196 255
0 196 255 0 196 255 0 196 255 0 196 255 0 196 255 0 196 255 0 196 255 0 196 255 0 196 255 0 196 255 32 201 255 0 193 255 255 255 255 255 255 255 255 255 255 255 255 255 255 255 255 255 255 255 255 255 255 255 255 255 255 255 255 255 255 255 255 255 255 255 255 255 255 255 255 255 255 255 0 196 255 0 196 255 0 196 255 0 196 255 0 196 255 0 196 255 0 196 255 0 196 255 0 196 255 0 196 255
0 196 255 0 196 255 0 196 255 0 196 255 0 196 255 0 196 255 0 196 255 0 196 255 0 196 255 0 196 255 0 196 255 255 255 255 254 254 254 254 254 254 254 254 254 255 255 255 255 255 255 255 255 255 255 255 255 255 255 255 255 255 255 254 254 254 254 254 254 254 254 254 255 255 255 0 196 255 0 196 255 0 196 255 0 196 255 0 196 255 0 196 255 0 196 255 0 196 255 0 196 255 0 196 255 0 196 255
0 196 255 0 196 255 0 196 255 0 196 255 0 196 255 0 196 255 0 196 255 0 196 255 0 196 255 0 196 255 0 196 255 0 196 255 254 254 254 254 254 254 254 254 254 255 255 255 255 255 255 255 255 255 255 255 255 255 255 255 255 255 255 254 254 254 254 254 254 254 254 254 0 195 255 0 196 255 0 196 255 0 196 255 0 196 255 0 196 255 0 196 255 0 196 255 0 196 255 0 196 255 0 196 255 0 196 255
0 196 255 0 196 255 0 196 255 0 196 255 0 196 255 0 196 255 0 196 255 0 196 255 0 196 255 0 196 255 0 196 255 0 196 255 0 196 254 46 205 254 238 250 254 255 255 255 255 255 255 255 255 255 255 255 255 255 255 255 255 255 255 254 254 254 254 254 254 254 254 254 0 196 255 0 196 255 0 196 255 0 196 255 0 196 255 0 196 255 0 196 255 0 196 255 0 196 255 0 196 255 0 196 255 0 196 255
0 196 255 0 196 255 0 196 255 0 196 255 0 196 255 0 196 255 0 196 255 0 196 255 0 196 255 0 196 255 0 196 255 0 196 255 170 234 255 255 255 255 255 255 255 255 255 255 255 255 255 255 255 255 255 255 255 255 255 255 255 255 255 255 255 255 59 206 255 0 196 255 0 196 255 0 196 255 0 196 255 0 196 255 0 196 255 0 196 255 0 196 255 0 196 255 0 196 255 0 196 255 0 196 255 0 196 255
0 196 255 0 196 255 0 196 255 0 196 255 0 196 255 0 196 255 0 196 255 0 196 255 233 249 255 255 255 255 255 255 255 255 255 255 255 255 255 255 255 255 255 255 255 255 255 255 255 255 255 255 255 255 255 255 255 255 255 255 255 255 255 0 196 255 0 196 255 0 196 255 0 196 255 0 196 255 0 196 255 0 196 255 0 196 255 0 196 255 0 196 255 0 196 255 0 196 255 0 196 255 0 196 255 0 196 255
0 196 255 0 196 255 0 196 255 0 196 255 0 196 255 0 196 255 0 196 255 0 196 255 0 196 255 0 196 255 221 246 255 255 255 255 255 255 255 255 255 255 255 255 255 255 255 255 255 255 255 255 255 255 255 255 255 128 223 255 0 196 255 0 196 255 0 196 255 0 196 255 0 196 255 0 196 255 0 196 255 0 196 255 0 196 255 0 196 255 0 196 255 0 196 255 0 196 255 0 196 255 0 196 255 0 196 255
0 196 255 0 196 255 0 196 255 0 196 255 0 196 255 0 196 255 0 196 255 0 196 255 0 196 255 0 196 255 0 196 255 0 196 255 0 196 255 0 196 255 0 196 255 0 196 255 0 196 255 0 196 255 0 196 255 0 196 255 0 196 255 0 196 255 0 196 255 0 196 255 0 196 255 0 196 255 0 196 255 0 196 255 0 196 255 0 196 255 0 196 255 0 196 255 0 196 255 0 196 255 0 196 255 0 196 255
0 196 255 0 196 255 0 196 255 0 196 255 0 196 255 0 196 255 0 196 255 0 196 255 0 196 255 0 196 255 0 196 255 0 196 255 0 196 255 0 196 255 0 196 255 0 196 255 0 196 255 0 196 255 0 196 255 0 196 255 0 196 255 0 196 255 0 196 255 0 196 255 0 196 255 0 196 255 0 196 255 0 196 255 0 196 255 0 196 255 0 196 255 0 196 255 0 196 255 0 196 255 0 196 255 0 196 255
0 196 255 0 196 255 0 196 255 0 196 255 0 196 255 0 196 255 0 196 255 0 196 255 0 196 255 0 196 255 0 196 255 0 196 255 0 196 255 0 196 255 0 196 255 0 196 255 0 196 255 0 196 255 0 196 255 0 196 255 0 196 255 0 196 255 0 196 255 0 196 255 0 196 255 0 196 255 0 196 255 0 196 255 0 196 255 0 196 255 0 196 255 0 196 255 0 196 255 0 196 255 0 196 255 0 196 255
0 196 255 0 196 255 0 196 255 0 196 255 0 196 255 0 196 255 0 196 255 0 196 255 0 196 255 0 196 255 0 196 255 0 196 255 0 196 255 0 196 255 0 196 255 0 196 255 0 196 255 0 196 255 0 196 255 0 196 255 0 196 255 0 196 255 0 196 255 0 196 255 0 196 255 0 196 255 0 196 255 0 196 255 0 196 255 0 196 255 0 196 255 0 196 255 0 196 255 0 196 255 0 196 255 0 196 255
0 196 255 0 196 255 0 196 255 0 196 255 0 196 255 0 196 255 0 196 255 0 196 255 0 196 255 0 196 255 0 196 255 0 196 255 0 196 255 0 196 255 0 196 255 0 196 255 0 196 255 0 196 255 0 196 255 0 196 255 0 196 255 0 196 255 0 196 255 0 196 255 0 196 255 0 196 255 0 196 255 0 196 255 0 196 255 0 196 255 0 196 255 0 196 255 0 196 255 0 196 255 0 196 255 0 196 255
0 196 255 0 196 255 0 196 255 0 196 255 0 196 255 0 196 255 0 196 255 0 196 255 0 196 255 0 196 255 0 196 255 0 196 255 0 196 255 0 196 255 0 196 255 0 196 255 0 196 255 0 196 255 0 196 255 0 196 255 0 196 255 0 196 255 0 196 255 0 196 255 0 196 255 0 196 255 0 196 255 0 196 255 0 196 255 0 196 255 0 196 255 0 196 255 0 196 255 0 196 255 0 196 255 0 196 255
0 196 255 0 196 255 0 196 255 0 196 255 0 196 255 0 196 255 0 196 255 0 196 255 0 196 255 0 196 255 0 196 255 0 196 255 0 196 255 0 196 255 0 196 255 0 196 255 0 196 255 0 196 255 0 196 255 0 196 255 0 196 255 0 196 255 0 196 255 0 196 255 0 196 255 0 196 255 0 196 255 0 196 255 0 196 255 0 196 255 0 196 255 0 196 255 0 196 255 0 196 255 0 196 255 0 196 255
0 196 255 0 196 255 0 196 255 0 196 255 0 196 255 0 196 255 0 196 255 0 196 255 0 196 255 0 196 255 0 196 255 0 196 255 0 196 255 0 196 255 0 196 255 0 196 255 0 196 255 0 196 255 0 196 255 0 196 255 0 196 255 0 196 255 0 196 255 0 196 255 0 196 255 0 196 255 0 196 255 0 196 255 0 196 255 0 196 255 0 196 255 0 196 255 0 196 255 0 196 255 0 196 255 0 196 255
0 196 255 0 196 255 0 196 255 0 196 255 0 196 255 0 196 255 0 196 255 0 196 255 0 196 255 0 196 255 0 196 255 0 196 255 0 196 255 0 196 255 0 196 255 0 196 255 0 196 255 0 196 255 0 196 255 0 196 255 0 196 255 0 196 255 0 196 255 0 196 255 0 196 255 0 196 255 0 196 255 0 196 255 0 196 255 0 196 255 0 196 255 0 196 255 0 196 255 0 196 255 0 196 255 0 196 255
